<svg xmlns="http://www.w3.org/2000/svg" width="304.013" height="72" viewBox="0 0 304.013 72"><g fill-rule="evenodd" clip-rule="evenodd"><path fill="#FFF" d="M287.18 30.254h-24.271v-1.958h24.271v1.958zM133.454 16.723c.007-.564.284-.846.829-.846h6.586c.567.019.852.3.852.846v.569c-.019.553-.302.83-.852.83h-4.822v4.076h3.926c.568.007.852.284.852.83v.564c-.019.568-.302.852-.852.852h-3.926v4.966c-.003.564-.28.846-.83.846h-.935c-.553 0-.829-.282-.829-.846V16.723zm33.328 20.355c.007-.564.284-.846.83-.846h6.929c.568.018.852.3.852.846v.57c-.019.553-.302.83-.852.83h-5.165v3.771h4.009c.568.007.852.284.852.829v.564c-.019.567-.302.852-.852.852h-4.009v3.871h5.491c.564.007.846.284.846.83v.57c-.022.564-.304.846-.846.846h-7.255c-.553 0-.83-.282-.83-.846V37.078zm-13.692.57v-.57c.003-.564.288-.846.852-.846h10.335c.553.018.83.3.83.846v.57c-.004.553-.28.83-.83.83h-3.871v11.286c.004.564-.28.846-.852.846h-.912c-.553 0-.83-.282-.83-.846V38.478h-3.871c-.567-.004-.851-.281-.851-.83zm-4.247-.57c.022-.564.306-.846.852-.846h.913c.567.018.852.3.852.846v12.686c-.019.564-.302.846-.852.846h-1.095c-.435.03-.767-.158-.995-.564l-5.121-7.72c-.354-.568-.753-1.311-1.2-2.229h-.039c.096.918.144 1.661.144 2.229v7.438c-.003.564-.28.846-.83.846h-.935c-.553 0-.829-.282-.829-.846V37.078c.007-.564.284-.846.829-.846h1.095c.453-.026.791.162 1.012.564l5.104 7.741c.365.564.763 1.305 1.194 2.223h.044c-.096-.918-.144-1.659-.144-2.223v-7.459zm7.687-21.202h4.07c4.892.243 7.338 2.632 7.338 7.167-.45 4.807-2.896 7.211-7.338 7.211h-4.07c-.553 0-.83-.282-.83-.846V16.723c.008-.564.284-.847.83-.847zm3.931 2.246h-2.167v9.888h2.167c3.186-.07 4.778-1.726 4.778-4.966-.309-3.282-1.902-4.922-4.778-4.922zm-13.736 0v3.771h4.009c.568.007.852.284.852.83v.564c-.018.568-.302.852-.852.852h-4.009v3.871h5.491c.564.007.846.284.846.83v.569c-.022.564-.304.846-.846.846h-7.255c-.553 0-.83-.282-.83-.846V16.723c.007-.564.284-.846.83-.846h6.929c.568.019.852.3.852.846v.569c-.019.553-.302.83-.852.83h-5.165zm67.753 18.956v.57c-.019.553-.303.83-.852.83h-5.165v3.771h4.009c.568.007.852.284.852.829v.564c-.018.567-.302.852-.852.852h-4.009v3.871h5.492c.564.007.846.284.846.83v.57c-.022.564-.304.846-.846.846h-7.255c-.553 0-.83-.282-.83-.846V37.078c.007-.564.284-.846.83-.846h6.929c.567.018.851.301.851.846zm-21.611-.846c.454-.026.791.162 1.012.564l5.104 7.741c.364.564.763 1.305 1.194 2.223h.044c-.096-.918-.144-1.659-.144-2.223v-7.459c.022-.564.306-.846.852-.846h.913c.568.018.852.3.852.846v12.686c-.019.564-.302.846-.852.846h-1.095c-.435.03-.767-.158-.995-.564l-5.121-7.72c-.354-.568-.754-1.311-1.2-2.229h-.039c.096.918.144 1.661.144 2.229v7.438c-.003.564-.28.846-.829.846h-.935c-.553 0-.83-.282-.83-.846V37.078c.007-.564.284-.846.83-.846h1.095zm-11.922 2.246v4.495h2.35c1.512-.103 2.267-.866 2.267-2.29.037-.98-.341-1.634-1.133-1.962-.269-.162-.789-.243-1.56-.243h-1.924zm-1.764-2.246h3.888c1.216-.004 2.129.124 2.737.381 1.607.675 2.411 1.985 2.411 3.931-.092 2.013-.888 3.324-2.389 3.932v.039c.122.147.276.396.464.747l2.373 4.335c.276.675.079 1.012-.592 1.012h-1.095c-.438.019-.769-.177-.99-.586l-2.533-4.778h-2.51v4.518c-.004.564-.28.846-.83.846h-.935c-.553 0-.83-.282-.83-.846V37.078c.008-.564.285-.846.831-.846zm3.904-20.356h3.887c1.217-.003 2.129.124 2.737.382 1.607.674 2.411 1.985 2.411 3.932-.092 2.013-.889 3.323-2.389 3.932v.039c.122.147.276.396.464.747l2.373 4.336c.276.674.079 1.012-.592 1.012h-1.095c-.438.019-.769-.177-.99-.586l-2.533-4.778h-2.511v4.518c-.003.564-.28.846-.83.846h-.934c-.553 0-.83-.282-.83-.846V16.723c.01-.564.286-.847.832-.847zm3.688 2.246h-1.925v4.496h2.351c1.511-.104 2.267-.867 2.267-2.29.037-.98-.341-1.635-1.134-1.963-.269-.162-.788-.243-1.559-.243zm-7.476-1.399v.569c-.019.553-.302.83-.852.83h-5.165v3.771h4.009c.567.007.852.284.852.83v.564c-.019.568-.302.852-.852.852h-4.009v3.871h5.491c.564.007.846.284.846.83v.569c-.022.564-.304.846-.846.846h-7.255c-.553 0-.83-.282-.83-.846V16.723c.007-.564.284-.846.83-.846h6.929c.568.018.852.3.852.846zm20.687 1.642c-.218.948-.406 1.69-.564 2.229l-1.3 3.849h3.75l-1.277-3.849a35.368 35.368 0 0 1-.57-2.229h-.039zm-.625-2.489h1.293c.498-.007.815.221.951.686l4.496 12.725c.169.645-.059.968-.686.968h-.935c-.49.007-.807-.221-.951-.686l-1.012-2.998h-5.043l-.995 2.975c-.147.472-.465.708-.951.708h-.929c-.664-.059-.894-.382-.691-.968l4.496-12.725c.152-.456.47-.685.957-.685zm48.835 21.202c.007-.564.284-.846.83-.846h.935c.553.018.83.3.83.846v11.286h5.37c.564.007.846.284.846.83v.57c0 .564-.282.846-.846.846h-7.134c-.553 0-.83-.282-.83-.846V37.078zm-7.77 3.871a36.137 36.137 0 0 1-.569-2.228h-.039c-.217.947-.405 1.69-.564 2.228l-1.299 3.849h3.749l-1.278-3.849zm-2.19-4.031c.151-.457.47-.686.957-.686h1.294c.498-.007.814.221.951.686l4.496 12.724c.169.645-.059.967-.686.967h-.935c-.49.008-.808-.221-.951-.686l-1.012-2.997h-5.043l-.996 2.975c-.147.472-.464.708-.951.708h-.929c-.664-.059-.894-.381-.691-.967l4.496-12.724zm-22.744.73v-.57c.004-.564.288-.846.852-.846h10.335c.553.018.83.3.83.846v.57c-.004.553-.28.83-.83.83h-3.871v11.286c.004.564-.28.846-.852.846h-.912c-.553 0-.83-.282-.83-.846V38.478h-3.871c-.568-.004-.851-.281-.851-.83zm10.756-19.891c1.39-1.416 3.172-2.124 5.347-2.124 2.253.096 4.037.804 5.353 2.124 1.39 1.416 2.085 3.152 2.085 5.209-.074 2.212-.769 3.995-2.085 5.348-1.39 1.453-3.174 2.179-5.353 2.179-2.252-.1-4.035-.826-5.347-2.179-1.39-1.449-2.085-3.231-2.085-5.348.073-2.153.768-3.889 2.085-5.209zm5.347.265c-1.427.063-2.56.537-3.401 1.421-.892.951-1.338 2.125-1.338 3.522.051 1.522.498 2.745 1.338 3.667.892.984 2.026 1.477 3.401 1.477 1.431-.063 2.566-.555 3.407-1.477.892-.988 1.338-2.21 1.338-3.667-.052-1.46-.498-2.634-1.338-3.522-.893-.947-2.028-1.421-3.407-1.421zm-13.244-1.299c.007-.564.284-.846.83-.846h.935c.553.019.83.3.83.846v12.686c-.004.564-.28.846-.83.846h-.935c-.553 0-.83-.282-.83-.846V16.723zm-.398 0v.569c-.004.553-.28.83-.83.83h-3.871v11.287c.004.564-.28.846-.852.846h-.912c-.553 0-.83-.282-.83-.846V18.122h-3.871c-.568-.003-.852-.28-.852-.83v-.569c.003-.564.288-.846.852-.846h10.335c.554.018.831.3.831.846zm55.305 26.25h2.35c1.512-.103 2.268-.866 2.268-2.29.036-.98-.342-1.634-1.134-1.962-.27-.162-.789-.243-1.56-.243h-1.924v4.495zm-2.594-5.895c.007-.564.284-.846.83-.846h3.887c1.217-.004 2.129.124 2.737.381 1.607.675 2.411 1.985 2.411 3.931-.093 2.013-.889 3.324-2.39 3.932v.039c.122.147.277.396.465.747l2.372 4.335c.277.675.08 1.012-.591 1.012h-1.096c-.438.019-.769-.177-.989-.586l-2.533-4.778h-2.51v4.518c-.004.564-.28.846-.83.846h-.935c-.553 0-.83-.282-.83-.846V37.078zm-3.81-.846c.568.018.852.3.852.846v.57c-.019.553-.302.83-.852.83h-5.165v3.771h4.009c.568.007.852.284.852.829v.564c-.019.567-.302.852-.852.852h-4.009v3.871h5.491c.564.007.846.284.846.83v.57c-.022.564-.304.846-.846.846h-7.255c-.553 0-.83-.282-.83-.846V37.078c.008-.564.284-.846.83-.846h6.929zm-2.981-16.805v1.703h2.478v1.703h-2.478v3.008h-1.991v-8.124h4.977v1.709h-2.986zm-12.116-3.551h.912c.568.019.852.3.852.846v12.686c-.018.564-.302.846-.852.846h-1.095c-.435.029-.767-.159-.996-.564l-5.121-7.72c-.354-.568-.754-1.311-1.2-2.229h-.039c.096.918.144 1.661.144 2.229v7.438c-.004.564-.28.846-.83.846h-.935c-.553 0-.83-.282-.83-.846V16.723c.007-.564.284-.846.83-.846h1.095c.454-.026.791.162 1.012.564l5.104 7.742c.365.564.763 1.305 1.194 2.223h.044c-.096-.918-.144-1.659-.144-2.223v-7.46c.026-.564.309-.847.855-.847zm25.957 1.842h2.832c.704-.003 1.229.061 1.575.194 1.003.395 1.505 1.183 1.505 2.367-.004 1.065-.409 1.803-1.217 2.212v.022c.074.1.175.264.304.492l1.582 2.837h-2.218l-1.443-2.737h-.929v2.737h-1.991v-8.124zm1.991 3.683h.862c.689-.019 1.034-.352 1.034-1.001.185-.649-.225-.973-1.228-.973h-.669v1.974zm-7.708-3.816c2.832.431 4.247 1.813 4.247 4.147-.376 2.828-1.791 4.241-4.247 4.241-2.835-.442-4.252-1.856-4.252-4.241.379-2.764 1.797-4.147 4.252-4.147zm0 1.814c-1.463.225-2.195 1.003-2.195 2.334.247 1.618.979 2.427 2.195 2.427 1.464-.236 2.196-1.045 2.196-2.427-.248-1.556-.98-2.334-2.196-2.334zm31.249 17.679c.417.328.503.713.26 1.156l-.365.669c-.343.417-.728.51-1.155.282-.546-.523-1.375-.785-2.488-.785-1.46.107-2.19.647-2.19 1.62.07.627.421 1.134 1.051 1.521.697.339 1.466.693 2.307 1.062.906.324 1.673.796 2.3 1.416.7.579 1.051 1.439 1.051 2.583-.019 1.228-.435 2.227-1.25 2.997-.829.833-2 1.25-3.511 1.25-2.23-.417-3.704-.9-4.419-1.449-.482-.236-.523-.628-.122-1.178l.448-.647c.28-.402.671-.463 1.173-.183.527.704 1.5 1.056 2.92 1.056 1.43-.122 2.146-.669 2.146-1.642-.07-.642-.419-1.163-1.046-1.565-.7-.358-1.469-.727-2.306-1.106-.907-.336-1.676-.813-2.306-1.433-.697-.575-1.046-1.423-1.046-2.543.063-1.297.527-2.31 1.394-3.036.934-.756 2.082-1.134 3.445-1.134 1.864.284 3.101.647 3.709 1.089zm-10.811-.846c.554.018.83.3.83.846v.57c-.004.553-.28.83-.83.83h-3.87v11.286c.003.564-.28.846-.852.846h-.913c-.553 0-.829-.282-.829-.846V38.478h-3.871c-.567-.004-.852-.28-.852-.83v-.57c.004-.564.287-.846.852-.846h10.335zm-158.979.846c.007-.564.284-.846.829-.846h.935c.553.018.83.3.83.846v12.686c-.003.564-.28.846-.83.846h-.935c-.553 0-.829-.282-.829-.846V37.078z"/><path fill="#E75431" d="M120.48 16.634c.435.435.653.958.653 1.57v30.602c0 .612-.218 1.136-.653 1.571s-.958.652-1.57.652H92.565c-.612 0-1.27.171-1.974.515-.704.339-1.248.748-1.631 1.228l-4.872 6.127c-.38.479-.704.671-.973.575-.273-.092-.409-.444-.409-1.056V18.205c0-.612.217-1.135.652-1.57s.958-.653 1.571-.653h33.981a2.137 2.137 0 0 1 1.57.652zM88.164 64.661c.84.837 1.261 1.849 1.261 3.036s-.42 2.201-1.261 3.042c-.837.84-1.849 1.261-3.037 1.261-1.187 0-2.201-.42-3.042-1.261-.84-.841-1.261-1.854-1.261-3.042s.42-2.199 1.261-3.036c.841-.84 1.854-1.261 3.042-1.261 1.188 0 2.2.421 3.037 1.261zM47.419 40.075c0 1.216.51 2.193 1.532 2.931 1.08.785 2.461 1.082 4.142.891 2.488-.284 4.402-1.163 5.74-2.638 1.272-1.404 1.908-3.203 1.908-5.396v-1.305h-1.443c-3.281 0-5.811.267-7.587.802-2.862.857-4.292 2.43-4.292 4.715zm7.482-25.791c4.549 0 8.098 1.217 10.645 3.65 2.563 2.448 3.844 5.876 3.844 10.286v19.647c0 1.921-.962 2.881-2.887 2.881h-2.334c-.892 0-1.592-.345-2.101-1.034-.476-.642-.713-1.467-.713-2.478v-.42c-1.748 1.692-3.886 2.877-6.415 3.556-1.261.339-2.348.508-3.263.508v-.005a13.583 13.583 0 0 1-5.812-.669c-1.404-.494-2.634-1.2-3.688-2.118a9.688 9.688 0 0 1-2.494-3.313c-.608-1.331-.912-2.776-.912-4.335 0-4.53 2.431-7.8 7.293-9.81 3.451-1.427 7.84-2.14 13.167-2.14h1.045v-.818c0-4.118-2.044-6.177-6.133-6.177-1.29 0-2.792.315-4.507.945-1.139.42-2.315.958-3.528 1.615-.877.387-1.629.494-2.256.321-.656-.184-1.185-.68-1.587-1.487l-.686-1.305c-.42-.808-.545-1.534-.376-2.179.177-.675.669-1.229 1.477-1.665 1.758-.911 3.427-1.633 5.005-2.168 2.536-.859 4.941-1.288 7.216-1.288zM35.215 4.269c0 1.18-.417 2.186-1.25 3.02-.833.833-1.839 1.25-3.019 1.25s-2.188-.417-3.025-1.25c-.833-.833-1.25-1.84-1.25-3.02s.417-2.186 1.25-3.02C28.758.417 29.766 0 30.946 0s2.186.417 3.019 1.25c.833.833 1.25 1.839 1.25 3.019zM23.889 3.263v1.786c0 .918-.25 1.615-.752 2.09-.498.464-1.231.706-2.201.725-.325.007-1.001.011-2.03.011-.999.048-1.853.203-2.56.465-2.087.771-3.119 2.512-3.097 5.226v2.373h19.139c.929 0 1.643.249 2.141.747s.746 1.209.746 2.134v29.331c0 .951-.249 1.672-.746 2.162-.491.479-1.204.719-2.141.719H29.37c-.929 0-1.629-.239-2.102-.719-.476-.483-.713-1.204-.713-2.162V23.419H13.25v24.729c0 .951-.249 1.672-.746 2.162-.491.479-1.204.719-2.14.719h-3.02c-.929 0-1.629-.239-2.102-.719-.476-.483-.713-1.204-.713-2.162V23.419H2.815c-.896 0-1.597-.332-2.102-.996C.238 21.801 0 20.988 0 19.985v-1.167c0-.933.238-1.644.713-2.134.479-.498 1.18-.747 2.102-.747h1.714v-2.715c.107-5.286 2.089-8.964 5.945-11.032C12.719.984 15.53.381 18.907.381h2.168c.925 0 1.626.24 2.101.719.476.487.713 1.208.713 2.163z"/></g></svg>